<mxfile host="app.diagrams.net" agent="Mozilla/5.0 (Windows NT 10.0; Win64; x64) AppleWebKit/537.36 (KHTML, like Gecko) Chrome/140.0.0.0 Safari/537.36 Edg/140.0.0.0" version="28.2.5">
  <diagram name="PÃ¡gina-1" id="xCX05FRLR23x_GqULnEx">
    <mxGraphModel dx="938" dy="614" grid="1" gridSize="10" guides="1" tooltips="1" connect="1" arrows="1" fold="1" page="1" pageScale="1" pageWidth="827" pageHeight="1169" math="0" shadow="0">
      <root>
        <mxCell id="0" />
        <mxCell id="1" parent="0" />
        <mxCell id="bbknKQI-rVNYDnJI7wuC-2" value="" style="whiteSpace=wrap;html=1;aspect=fixed;" parent="1" vertex="1">
          <mxGeometry x="70" y="30" width="50" height="50" as="geometry" />
        </mxCell>
        <mxCell id="bbknKQI-rVNYDnJI7wuC-1" value="&lt;font style=&quot;font-size: 18px;&quot;&gt;0&lt;/font&gt;" style="whiteSpace=wrap;html=1;aspect=fixed;" parent="1" vertex="1">
          <mxGeometry x="80" y="40" width="30" height="30" as="geometry" />
        </mxCell>
        <mxCell id="bbknKQI-rVNYDnJI7wuC-3" value="&lt;font style=&quot;font-size: 18px;&quot;&gt;1&lt;/font&gt;" style="whiteSpace=wrap;html=1;aspect=fixed;" parent="1" vertex="1">
          <mxGeometry x="80" y="120" width="30" height="30" as="geometry" />
        </mxCell>
        <mxCell id="bbknKQI-rVNYDnJI7wuC-4" value="&lt;font style=&quot;font-size: 18px;&quot;&gt;7&lt;/font&gt;" style="whiteSpace=wrap;html=1;aspect=fixed;" parent="1" vertex="1">
          <mxGeometry x="80" y="920" width="30" height="30" as="geometry" />
        </mxCell>
        <mxCell id="bbknKQI-rVNYDnJI7wuC-5" value="" style="endArrow=classic;html=1;rounded=0;exitX=0.5;exitY=1;exitDx=0;exitDy=0;entryX=0.5;entryY=0;entryDx=0;entryDy=0;" parent="1" source="bbknKQI-rVNYDnJI7wuC-2" target="bbknKQI-rVNYDnJI7wuC-3" edge="1">
          <mxGeometry width="50" height="50" relative="1" as="geometry">
            <mxPoint x="180" y="290" as="sourcePoint" />
            <mxPoint x="230" y="240" as="targetPoint" />
          </mxGeometry>
        </mxCell>
        <mxCell id="bbknKQI-rVNYDnJI7wuC-6" value="" style="endArrow=none;html=1;rounded=0;" parent="1" edge="1">
          <mxGeometry width="50" height="50" relative="1" as="geometry">
            <mxPoint x="80" y="100" as="sourcePoint" />
            <mxPoint x="110" y="100" as="targetPoint" />
          </mxGeometry>
        </mxCell>
        <mxCell id="bbknKQI-rVNYDnJI7wuC-7" value="CH" style="text;html=1;align=center;verticalAlign=middle;whiteSpace=wrap;rounded=0;" parent="1" vertex="1">
          <mxGeometry x="120" y="90" width="20" height="20" as="geometry" />
        </mxCell>
        <mxCell id="bbknKQI-rVNYDnJI7wuC-8" value="&lt;font style=&quot;font-size: 18px;&quot;&gt;2&lt;/font&gt;" style="whiteSpace=wrap;html=1;aspect=fixed;" parent="1" vertex="1">
          <mxGeometry x="80" y="190" width="30" height="30" as="geometry" />
        </mxCell>
        <mxCell id="bbknKQI-rVNYDnJI7wuC-9" value="" style="endArrow=classic;html=1;rounded=0;exitX=0.5;exitY=1;exitDx=0;exitDy=0;entryX=0.5;entryY=0;entryDx=0;entryDy=0;" parent="1" edge="1">
          <mxGeometry width="50" height="50" relative="1" as="geometry">
            <mxPoint x="95" y="150" as="sourcePoint" />
            <mxPoint x="95" y="190" as="targetPoint" />
          </mxGeometry>
        </mxCell>
        <mxCell id="bbknKQI-rVNYDnJI7wuC-10" value="" style="endArrow=none;html=1;rounded=0;" parent="1" edge="1">
          <mxGeometry width="50" height="50" relative="1" as="geometry">
            <mxPoint x="80" y="170" as="sourcePoint" />
            <mxPoint x="110" y="170" as="targetPoint" />
          </mxGeometry>
        </mxCell>
        <mxCell id="bbknKQI-rVNYDnJI7wuC-11" value="CH&#39;" style="text;html=1;align=center;verticalAlign=middle;whiteSpace=wrap;rounded=0;" parent="1" vertex="1">
          <mxGeometry x="120" y="160" width="20" height="20" as="geometry" />
        </mxCell>
        <mxCell id="bbknKQI-rVNYDnJI7wuC-12" value="" style="endArrow=none;html=1;rounded=0;exitX=1;exitY=0.5;exitDx=0;exitDy=0;" parent="1" source="bbknKQI-rVNYDnJI7wuC-8" edge="1">
          <mxGeometry width="50" height="50" relative="1" as="geometry">
            <mxPoint x="260" y="240" as="sourcePoint" />
            <mxPoint x="150" y="205" as="targetPoint" />
          </mxGeometry>
        </mxCell>
        <mxCell id="bbknKQI-rVNYDnJI7wuC-13" value="&lt;font style=&quot;font-size: 12px;&quot;&gt;Aciona Motor(abrindo)&lt;/font&gt;" style="rounded=0;whiteSpace=wrap;html=1;" parent="1" vertex="1">
          <mxGeometry x="180" y="190" width="140" height="35" as="geometry" />
        </mxCell>
        <mxCell id="bbknKQI-rVNYDnJI7wuC-15" value="S" style="rounded=0;whiteSpace=wrap;html=1;" parent="1" vertex="1">
          <mxGeometry x="150" y="190" width="30" height="35" as="geometry" />
        </mxCell>
        <mxCell id="bbknKQI-rVNYDnJI7wuC-16" value="&lt;div&gt;&lt;font style=&quot;font-size: 18px;&quot;&gt;4&lt;/font&gt;&lt;/div&gt;" style="whiteSpace=wrap;html=1;aspect=fixed;" parent="1" vertex="1">
          <mxGeometry x="25" y="310" width="30" height="30" as="geometry" />
        </mxCell>
        <mxCell id="bbknKQI-rVNYDnJI7wuC-17" value="&lt;font style=&quot;font-size: 18px;&quot;&gt;3&lt;/font&gt;" style="whiteSpace=wrap;html=1;aspect=fixed;" parent="1" vertex="1">
          <mxGeometry x="80" y="435" width="30" height="30" as="geometry" />
        </mxCell>
        <mxCell id="bbknKQI-rVNYDnJI7wuC-19" value="" style="endArrow=none;html=1;rounded=0;exitX=0.5;exitY=1;exitDx=0;exitDy=0;" parent="1" source="bbknKQI-rVNYDnJI7wuC-8" edge="1">
          <mxGeometry width="50" height="50" relative="1" as="geometry">
            <mxPoint x="260" y="270" as="sourcePoint" />
            <mxPoint x="95" y="250" as="targetPoint" />
          </mxGeometry>
        </mxCell>
        <mxCell id="bbknKQI-rVNYDnJI7wuC-21" value="" style="endArrow=classic;html=1;rounded=0;entryX=0.5;entryY=0;entryDx=0;entryDy=0;" parent="1" target="bbknKQI-rVNYDnJI7wuC-16" edge="1">
          <mxGeometry width="50" height="50" relative="1" as="geometry">
            <mxPoint x="100" y="250" as="sourcePoint" />
            <mxPoint x="310" y="210" as="targetPoint" />
            <Array as="points">
              <mxPoint x="40" y="250" />
            </Array>
          </mxGeometry>
        </mxCell>
        <mxCell id="bbknKQI-rVNYDnJI7wuC-23" value="" style="endArrow=none;html=1;rounded=0;" parent="1" edge="1">
          <mxGeometry width="50" height="50" relative="1" as="geometry">
            <mxPoint x="135" y="320" as="sourcePoint" />
            <mxPoint x="165" y="320" as="targetPoint" />
          </mxGeometry>
        </mxCell>
        <mxCell id="bbknKQI-rVNYDnJI7wuC-24" value="Fim de curso 1 acionado" style="text;html=1;align=center;verticalAlign=middle;whiteSpace=wrap;rounded=0;" parent="1" vertex="1">
          <mxGeometry x="175" y="310" width="135" height="20" as="geometry" />
        </mxCell>
        <mxCell id="bbknKQI-rVNYDnJI7wuC-25" value="" style="endArrow=none;html=1;rounded=0;" parent="1" edge="1">
          <mxGeometry width="50" height="50" relative="1" as="geometry">
            <mxPoint x="25" y="280" as="sourcePoint" />
            <mxPoint x="55" y="280" as="targetPoint" />
          </mxGeometry>
        </mxCell>
        <mxCell id="bbknKQI-rVNYDnJI7wuC-26" value="CH" style="text;html=1;align=center;verticalAlign=middle;whiteSpace=wrap;rounded=0;" parent="1" vertex="1">
          <mxGeometry x="65" y="270" width="20" height="20" as="geometry" />
        </mxCell>
        <mxCell id="bbknKQI-rVNYDnJI7wuC-28" value="" style="endArrow=classic;html=1;rounded=0;exitX=0.5;exitY=1;exitDx=0;exitDy=0;" parent="1" source="bbknKQI-rVNYDnJI7wuC-16" edge="1">
          <mxGeometry width="50" height="50" relative="1" as="geometry">
            <mxPoint x="260" y="440" as="sourcePoint" />
            <mxPoint x="40" y="390" as="targetPoint" />
          </mxGeometry>
        </mxCell>
        <mxCell id="bbknKQI-rVNYDnJI7wuC-30" value="" style="endArrow=none;html=1;rounded=0;" parent="1" edge="1">
          <mxGeometry width="50" height="50" relative="1" as="geometry">
            <mxPoint x="25" y="360" as="sourcePoint" />
            <mxPoint x="55" y="360" as="targetPoint" />
          </mxGeometry>
        </mxCell>
        <mxCell id="bbknKQI-rVNYDnJI7wuC-31" value="CH&#39;" style="text;html=1;align=center;verticalAlign=middle;whiteSpace=wrap;rounded=0;" parent="1" vertex="1">
          <mxGeometry x="65" y="350" width="20" height="20" as="geometry" />
        </mxCell>
        <mxCell id="bbknKQI-rVNYDnJI7wuC-34" value="" style="endArrow=none;html=1;rounded=0;" parent="1" edge="1">
          <mxGeometry width="50" height="50" relative="1" as="geometry">
            <mxPoint x="20" y="390" as="sourcePoint" />
            <mxPoint x="170" y="390" as="targetPoint" />
          </mxGeometry>
        </mxCell>
        <mxCell id="bbknKQI-rVNYDnJI7wuC-37" value="" style="endArrow=none;html=1;rounded=0;exitX=1;exitY=0.5;exitDx=0;exitDy=0;" parent="1" edge="1">
          <mxGeometry width="50" height="50" relative="1" as="geometry">
            <mxPoint x="110" y="450" as="sourcePoint" />
            <mxPoint x="150" y="450" as="targetPoint" />
          </mxGeometry>
        </mxCell>
        <mxCell id="bbknKQI-rVNYDnJI7wuC-38" value="Desliga Motor(abrindo)" style="rounded=0;whiteSpace=wrap;html=1;" parent="1" vertex="1">
          <mxGeometry x="180" y="435" width="140" height="35" as="geometry" />
        </mxCell>
        <mxCell id="bbknKQI-rVNYDnJI7wuC-39" value="S" style="rounded=0;whiteSpace=wrap;html=1;" parent="1" vertex="1">
          <mxGeometry x="150" y="435" width="30" height="35" as="geometry" />
        </mxCell>
        <mxCell id="bbknKQI-rVNYDnJI7wuC-40" value="" style="endArrow=none;html=1;rounded=0;" parent="1" edge="1">
          <mxGeometry width="50" height="50" relative="1" as="geometry">
            <mxPoint x="20" y="395" as="sourcePoint" />
            <mxPoint x="170" y="395" as="targetPoint" />
          </mxGeometry>
        </mxCell>
        <mxCell id="bbknKQI-rVNYDnJI7wuC-44" value="" style="endArrow=classic;html=1;rounded=0;" parent="1" edge="1">
          <mxGeometry width="50" height="50" relative="1" as="geometry">
            <mxPoint x="100" y="250" as="sourcePoint" />
            <mxPoint x="150" y="390" as="targetPoint" />
            <Array as="points">
              <mxPoint x="150" y="250" />
            </Array>
          </mxGeometry>
        </mxCell>
        <mxCell id="bbknKQI-rVNYDnJI7wuC-45" value="" style="endArrow=none;html=1;rounded=0;entryX=0.5;entryY=0;entryDx=0;entryDy=0;" parent="1" target="bbknKQI-rVNYDnJI7wuC-17" edge="1">
          <mxGeometry width="50" height="50" relative="1" as="geometry">
            <mxPoint x="95" y="395" as="sourcePoint" />
            <mxPoint x="170" y="405" as="targetPoint" />
          </mxGeometry>
        </mxCell>
        <mxCell id="bbknKQI-rVNYDnJI7wuC-46" value="&lt;font style=&quot;font-size: 18px;&quot;&gt;5&lt;/font&gt;" style="whiteSpace=wrap;html=1;aspect=fixed;" parent="1" vertex="1">
          <mxGeometry x="25" y="555" width="30" height="30" as="geometry" />
        </mxCell>
        <mxCell id="bbknKQI-rVNYDnJI7wuC-47" value="" style="endArrow=none;html=1;rounded=0;exitX=0.5;exitY=1;exitDx=0;exitDy=0;" parent="1" edge="1">
          <mxGeometry width="50" height="50" relative="1" as="geometry">
            <mxPoint x="95" y="465" as="sourcePoint" />
            <mxPoint x="95" y="495" as="targetPoint" />
          </mxGeometry>
        </mxCell>
        <mxCell id="bbknKQI-rVNYDnJI7wuC-48" value="" style="endArrow=classic;html=1;rounded=0;entryX=0.5;entryY=0;entryDx=0;entryDy=0;" parent="1" target="bbknKQI-rVNYDnJI7wuC-46" edge="1">
          <mxGeometry width="50" height="50" relative="1" as="geometry">
            <mxPoint x="100" y="495" as="sourcePoint" />
            <mxPoint x="310" y="455" as="targetPoint" />
            <Array as="points">
              <mxPoint x="40" y="495" />
            </Array>
          </mxGeometry>
        </mxCell>
        <mxCell id="bbknKQI-rVNYDnJI7wuC-49" value="" style="endArrow=none;html=1;rounded=0;" parent="1" edge="1">
          <mxGeometry width="50" height="50" relative="1" as="geometry">
            <mxPoint x="135" y="565" as="sourcePoint" />
            <mxPoint x="165" y="565" as="targetPoint" />
          </mxGeometry>
        </mxCell>
        <mxCell id="bbknKQI-rVNYDnJI7wuC-50" value="Fim de curso 1 acionado &amp;amp; Sensor Ãptico desligado por 10 segundos" style="text;html=1;align=center;verticalAlign=middle;whiteSpace=wrap;rounded=0;" parent="1" vertex="1">
          <mxGeometry x="175" y="560" width="225" height="20" as="geometry" />
        </mxCell>
        <mxCell id="bbknKQI-rVNYDnJI7wuC-51" value="" style="endArrow=none;html=1;rounded=0;" parent="1" edge="1">
          <mxGeometry width="50" height="50" relative="1" as="geometry">
            <mxPoint x="25" y="525" as="sourcePoint" />
            <mxPoint x="55" y="525" as="targetPoint" />
          </mxGeometry>
        </mxCell>
        <mxCell id="bbknKQI-rVNYDnJI7wuC-52" value="CH" style="text;html=1;align=center;verticalAlign=middle;whiteSpace=wrap;rounded=0;" parent="1" vertex="1">
          <mxGeometry x="65" y="515" width="20" height="20" as="geometry" />
        </mxCell>
        <mxCell id="bbknKQI-rVNYDnJI7wuC-53" value="" style="endArrow=classic;html=1;rounded=0;exitX=0.5;exitY=1;exitDx=0;exitDy=0;" parent="1" source="bbknKQI-rVNYDnJI7wuC-46" edge="1">
          <mxGeometry width="50" height="50" relative="1" as="geometry">
            <mxPoint x="260" y="685" as="sourcePoint" />
            <mxPoint x="40" y="635" as="targetPoint" />
          </mxGeometry>
        </mxCell>
        <mxCell id="bbknKQI-rVNYDnJI7wuC-54" value="" style="endArrow=none;html=1;rounded=0;" parent="1" edge="1">
          <mxGeometry width="50" height="50" relative="1" as="geometry">
            <mxPoint x="25" y="605" as="sourcePoint" />
            <mxPoint x="55" y="605" as="targetPoint" />
          </mxGeometry>
        </mxCell>
        <mxCell id="bbknKQI-rVNYDnJI7wuC-55" value="CH&#39;" style="text;html=1;align=center;verticalAlign=middle;whiteSpace=wrap;rounded=0;" parent="1" vertex="1">
          <mxGeometry x="65" y="595" width="20" height="20" as="geometry" />
        </mxCell>
        <mxCell id="bbknKQI-rVNYDnJI7wuC-56" value="" style="endArrow=none;html=1;rounded=0;" parent="1" edge="1">
          <mxGeometry width="50" height="50" relative="1" as="geometry">
            <mxPoint x="20" y="635" as="sourcePoint" />
            <mxPoint x="170" y="635" as="targetPoint" />
          </mxGeometry>
        </mxCell>
        <mxCell id="bbknKQI-rVNYDnJI7wuC-57" value="" style="endArrow=none;html=1;rounded=0;" parent="1" edge="1">
          <mxGeometry width="50" height="50" relative="1" as="geometry">
            <mxPoint x="20" y="640" as="sourcePoint" />
            <mxPoint x="170" y="640" as="targetPoint" />
          </mxGeometry>
        </mxCell>
        <mxCell id="bbknKQI-rVNYDnJI7wuC-58" value="" style="endArrow=classic;html=1;rounded=0;" parent="1" edge="1">
          <mxGeometry width="50" height="50" relative="1" as="geometry">
            <mxPoint x="100" y="495" as="sourcePoint" />
            <mxPoint x="150" y="635" as="targetPoint" />
            <Array as="points">
              <mxPoint x="150" y="495" />
            </Array>
          </mxGeometry>
        </mxCell>
        <mxCell id="bbknKQI-rVNYDnJI7wuC-59" value="" style="endArrow=none;html=1;rounded=0;entryX=0.5;entryY=0;entryDx=0;entryDy=0;" parent="1" edge="1">
          <mxGeometry width="50" height="50" relative="1" as="geometry">
            <mxPoint x="95" y="640" as="sourcePoint" />
            <mxPoint x="95" y="680" as="targetPoint" />
          </mxGeometry>
        </mxCell>
        <mxCell id="bbknKQI-rVNYDnJI7wuC-60" value="&lt;font style=&quot;font-size: 18px;&quot;&gt;6&lt;/font&gt;" style="whiteSpace=wrap;html=1;aspect=fixed;" parent="1" vertex="1">
          <mxGeometry x="80" y="680" width="30" height="30" as="geometry" />
        </mxCell>
        <mxCell id="bbknKQI-rVNYDnJI7wuC-61" value="" style="endArrow=none;html=1;rounded=0;exitX=1;exitY=0.5;exitDx=0;exitDy=0;" parent="1" edge="1">
          <mxGeometry width="50" height="50" relative="1" as="geometry">
            <mxPoint x="110" y="692.5" as="sourcePoint" />
            <mxPoint x="150" y="692.5" as="targetPoint" />
          </mxGeometry>
        </mxCell>
        <mxCell id="bbknKQI-rVNYDnJI7wuC-62" value="Aciona Motor(fechando)" style="rounded=0;whiteSpace=wrap;html=1;" parent="1" vertex="1">
          <mxGeometry x="180" y="677.5" width="140" height="35" as="geometry" />
        </mxCell>
        <mxCell id="bbknKQI-rVNYDnJI7wuC-63" value="S" style="rounded=0;whiteSpace=wrap;html=1;" parent="1" vertex="1">
          <mxGeometry x="150" y="677.5" width="30" height="35" as="geometry" />
        </mxCell>
        <mxCell id="bbknKQI-rVNYDnJI7wuC-64" value="&lt;font style=&quot;font-size: 18px;&quot;&gt;8&lt;/font&gt;" style="whiteSpace=wrap;html=1;aspect=fixed;" parent="1" vertex="1">
          <mxGeometry x="25" y="800" width="30" height="30" as="geometry" />
        </mxCell>
        <mxCell id="bbknKQI-rVNYDnJI7wuC-65" value="" style="endArrow=none;html=1;rounded=0;exitX=0.5;exitY=1;exitDx=0;exitDy=0;" parent="1" edge="1">
          <mxGeometry width="50" height="50" relative="1" as="geometry">
            <mxPoint x="95" y="710" as="sourcePoint" />
            <mxPoint x="95" y="740" as="targetPoint" />
          </mxGeometry>
        </mxCell>
        <mxCell id="bbknKQI-rVNYDnJI7wuC-66" value="" style="endArrow=classic;html=1;rounded=0;entryX=0.5;entryY=0;entryDx=0;entryDy=0;" parent="1" target="bbknKQI-rVNYDnJI7wuC-64" edge="1">
          <mxGeometry width="50" height="50" relative="1" as="geometry">
            <mxPoint x="100" y="740" as="sourcePoint" />
            <mxPoint x="310" y="700" as="targetPoint" />
            <Array as="points">
              <mxPoint x="40" y="740" />
            </Array>
          </mxGeometry>
        </mxCell>
        <mxCell id="bbknKQI-rVNYDnJI7wuC-67" value="" style="endArrow=none;html=1;rounded=0;" parent="1" edge="1">
          <mxGeometry width="50" height="50" relative="1" as="geometry">
            <mxPoint x="135" y="810" as="sourcePoint" />
            <mxPoint x="165" y="810" as="targetPoint" />
          </mxGeometry>
        </mxCell>
        <mxCell id="bbknKQI-rVNYDnJI7wuC-68" value="Fim de curso 2 acionado" style="text;html=1;align=center;verticalAlign=middle;whiteSpace=wrap;rounded=0;" parent="1" vertex="1">
          <mxGeometry x="175" y="800" width="135" height="20" as="geometry" />
        </mxCell>
        <mxCell id="bbknKQI-rVNYDnJI7wuC-69" value="" style="endArrow=none;html=1;rounded=0;" parent="1" edge="1">
          <mxGeometry width="50" height="50" relative="1" as="geometry">
            <mxPoint x="25" y="770" as="sourcePoint" />
            <mxPoint x="55" y="770" as="targetPoint" />
          </mxGeometry>
        </mxCell>
        <mxCell id="bbknKQI-rVNYDnJI7wuC-70" value="CH" style="text;html=1;align=center;verticalAlign=middle;whiteSpace=wrap;rounded=0;" parent="1" vertex="1">
          <mxGeometry x="65" y="760" width="20" height="20" as="geometry" />
        </mxCell>
        <mxCell id="bbknKQI-rVNYDnJI7wuC-71" value="" style="endArrow=classic;html=1;rounded=0;exitX=0.5;exitY=1;exitDx=0;exitDy=0;" parent="1" source="bbknKQI-rVNYDnJI7wuC-64" edge="1">
          <mxGeometry width="50" height="50" relative="1" as="geometry">
            <mxPoint x="260" y="930" as="sourcePoint" />
            <mxPoint x="40" y="880" as="targetPoint" />
          </mxGeometry>
        </mxCell>
        <mxCell id="bbknKQI-rVNYDnJI7wuC-72" value="" style="endArrow=none;html=1;rounded=0;" parent="1" edge="1">
          <mxGeometry width="50" height="50" relative="1" as="geometry">
            <mxPoint x="25" y="850" as="sourcePoint" />
            <mxPoint x="55" y="850" as="targetPoint" />
          </mxGeometry>
        </mxCell>
        <mxCell id="bbknKQI-rVNYDnJI7wuC-73" value="CH&#39;" style="text;html=1;align=center;verticalAlign=middle;whiteSpace=wrap;rounded=0;" parent="1" vertex="1">
          <mxGeometry x="65" y="840" width="20" height="20" as="geometry" />
        </mxCell>
        <mxCell id="bbknKQI-rVNYDnJI7wuC-74" value="" style="endArrow=none;html=1;rounded=0;" parent="1" edge="1">
          <mxGeometry width="50" height="50" relative="1" as="geometry">
            <mxPoint x="20" y="880" as="sourcePoint" />
            <mxPoint x="170" y="880" as="targetPoint" />
          </mxGeometry>
        </mxCell>
        <mxCell id="bbknKQI-rVNYDnJI7wuC-75" value="" style="endArrow=none;html=1;rounded=0;" parent="1" edge="1">
          <mxGeometry width="50" height="50" relative="1" as="geometry">
            <mxPoint x="20" y="885" as="sourcePoint" />
            <mxPoint x="170" y="885" as="targetPoint" />
          </mxGeometry>
        </mxCell>
        <mxCell id="bbknKQI-rVNYDnJI7wuC-76" value="" style="endArrow=classic;html=1;rounded=0;" parent="1" edge="1">
          <mxGeometry width="50" height="50" relative="1" as="geometry">
            <mxPoint x="100" y="740" as="sourcePoint" />
            <mxPoint x="150" y="880" as="targetPoint" />
            <Array as="points">
              <mxPoint x="150" y="740" />
            </Array>
          </mxGeometry>
        </mxCell>
        <mxCell id="bbknKQI-rVNYDnJI7wuC-77" value="" style="endArrow=none;html=1;rounded=0;entryX=0.5;entryY=0;entryDx=0;entryDy=0;" parent="1" target="bbknKQI-rVNYDnJI7wuC-4" edge="1">
          <mxGeometry width="50" height="50" relative="1" as="geometry">
            <mxPoint x="95" y="885" as="sourcePoint" />
            <mxPoint x="95" y="925" as="targetPoint" />
          </mxGeometry>
        </mxCell>
        <mxCell id="bbknKQI-rVNYDnJI7wuC-78" value="" style="endArrow=none;html=1;rounded=0;exitX=1;exitY=0.5;exitDx=0;exitDy=0;" parent="1" edge="1">
          <mxGeometry width="50" height="50" relative="1" as="geometry">
            <mxPoint x="110" y="935" as="sourcePoint" />
            <mxPoint x="150" y="935" as="targetPoint" />
          </mxGeometry>
        </mxCell>
        <mxCell id="bbknKQI-rVNYDnJI7wuC-79" value="Desliga Motor(fechando)" style="rounded=0;whiteSpace=wrap;html=1;" parent="1" vertex="1">
          <mxGeometry x="180" y="920" width="140" height="35" as="geometry" />
        </mxCell>
        <mxCell id="bbknKQI-rVNYDnJI7wuC-80" value="S" style="rounded=0;whiteSpace=wrap;html=1;" parent="1" vertex="1">
          <mxGeometry x="150" y="920" width="30" height="35" as="geometry" />
        </mxCell>
        <mxCell id="bbknKQI-rVNYDnJI7wuC-81" value="" style="endArrow=classic;html=1;rounded=0;exitX=0.5;exitY=1;exitDx=0;exitDy=0;entryX=1;entryY=0.5;entryDx=0;entryDy=0;" parent="1" source="bbknKQI-rVNYDnJI7wuC-4" target="bbknKQI-rVNYDnJI7wuC-2" edge="1">
          <mxGeometry width="50" height="50" relative="1" as="geometry">
            <mxPoint x="230" y="860" as="sourcePoint" />
            <mxPoint x="470" y="60" as="targetPoint" />
            <Array as="points">
              <mxPoint x="95" y="1000" />
              <mxPoint x="440" y="1000" />
              <mxPoint x="440" y="55" />
            </Array>
          </mxGeometry>
        </mxCell>
        <mxCell id="bbknKQI-rVNYDnJI7wuC-82" value="InÃ­cio" style="text;html=1;align=center;verticalAlign=middle;whiteSpace=wrap;rounded=0;" parent="1" vertex="1">
          <mxGeometry x="20" y="45" width="40" height="20" as="geometry" />
        </mxCell>
      </root>
    </mxGraphModel>
  </diagram>
</mxfile>
